<svg width="44" height="44" viewBox="0 0 44 44" fill="none" xmlns="http://www.w3.org/2000/svg">
  <!-- Черный фон -->
  <rect width="44" height="44" rx="8" fill="#1a1a1a"/>
  
  <!-- Розовый полумесяц слева -->
  <path d="M8 22C8 14.268 14.268 8 22 8C29.732 8 36 14.268 36 22C36 29.732 29.732 36 22 36C14.268 36 8 29.732 8 22Z" fill="#FF1493" opacity="0.8"/>
  <path d="M12 22C12 15.373 17.373 10 24 10C30.627 10 36 15.373 36 22C36 28.627 30.627 34 24 34C17.373 34 12 28.627 12 22Z" fill="#1a1a1a"/>
  
  <!-- Темно-серый круг вентилятора -->
  <circle cx="22" cy="22" r="12" fill="#2a2a2a" stroke="#3a3a3a" stroke-width="1"/>
  
  <!-- Трехлопастной вентилятор -->
  <g transform="translate(22, 22)">
    <!-- Лопасть 1 -->
    <path d="M0 0 L-8 -2 L-6 6 Z" fill="#3a3a3a" opacity="0.8"/>
    <!-- Лопасть 2 -->
    <path d="M0 0 L2 -8 L6 6 Z" fill="#3a3a3a" opacity="0.8"/>
    <!-- Лопасть 3 -->
    <path d="M0 0 L8 2 L-6 -6 Z" fill="#3a3a3a" opacity="0.8"/>
    
    <!-- Центральная ось -->
    <circle cx="0" cy="0" r="2" fill="#4a4a4a"/>
  </g>
</svg>